<svg
  xmlns="http://www.w3.org/2000/svg"
  xmlns:xlink="http://www.w3.org/1999/xlink"
  aria-hidden="true"
  role="img"
  width="1rem"
  height="1rem"
  viewBox="0 0 24 24"
>
  <path
    fill="currentColor"
    d="M16.62 6.21a1 1 0 0 0-1.41.17l-7 9l-3.43-4.18a1 1 0 1 0-1.56 1.25l4.17 5.18a1 1 0 0 0 .78.37a1 1 0 0 0 .83-.38l7.83-10a1 1 0 0 0-.21-1.41Zm5 0a1 1 0 0 0-1.41.17l-7 9l-.61-.75l-1.26 1.62l1.1 1.37a1 1 0 0 0 .78.37a1 1 0 0 0 .78-.38l7.83-10a1 1 0 0 0-.21-1.4Z"
  ></path>
  <path
    fill="currentColor"
    d="M8.71 13.06L10 11.44l-.2-.24a1 1 0 0 0-1.43-.2a1 1 0 0 0-.15 1.41Z"
  ></path>
</svg>
