<?xml version="1.0" standalone="no"?>
<!DOCTYPE svg PUBLIC "-//W3C//DTD SVG 1.1//EN" "http://www.w3.org/Graphics/SVG/1.1/DTD/svg11.dtd">
<svg xmlns="http://www.w3.org/2000/svg">
<defs >
<font id="PublicSans" horiz-adv-x="1089" ><font-face
    font-family="Public Sans Thin Medium"
    units-per-em="2000"
    panose-1="0 0 0 0 0 0 0 0 0 0"
    ascent="1900"
    descent="-450"
    alphabetic="0" />
<glyph unicode=" " horiz-adv-x="476" />
<glyph unicode="!" horiz-adv-x="519" d="M185 389L126 1446H381L325 389H185ZM129 0V255H376V0H129Z" />
<glyph unicode="&quot;" horiz-adv-x="880" d="M569 954L506 1446H751L686 954H569ZM192 954L129 1446H374L309 954H192Z" />
<glyph unicode="#" horiz-adv-x="1213" d="M771 -4L646 14L863 1449L987 1435L771 -4ZM68 464V587H1072V464H68ZM356 -4L232 14L449 1449L572 1435L356 -4ZM132 874V997H1136V874H132Z" />
<glyph unicode="$" horiz-adv-x="1329" d="M686 -20Q448 -20 295 80T114 380L338 391Q367 275 459 217T685 158Q765 158 834 185T945 262T987 376Q987 468 932 520T758 602L512 664Q350 703 255 793T158 1037Q157 1165 225 1261T415 1410T691 1464Q844 1464 954
1407T1125 1256T1189 1049L972 1040Q952 1160 886 1223T692 1287Q631 1287 576 1272T479 1228T413 1157T388 1059Q388 985 439 942T627 859L866 794Q1053 744 1134 635T1215 379Q1215 261 1149 171T964 31T686 -20ZM585 -204V55H778V-204H585ZM595 1401V1660H789V1401H595Z"
/>
<glyph unicode="%" horiz-adv-x="1827" d="M341 -8L1318 1462H1452L480 -8H341ZM452 644Q352 644 273 696T149 841T103 1054Q103 1176 149 1269T274 1415T452 1468Q551 1468 629 1415T753 1269T798 1054Q798 934 754 842T631 697T452 644ZM450 760Q542 760 590
835T638 1054Q638 1200 590 1276T450 1353Q360 1353 312 1276T263 1054Q263 911 311 836T450 760ZM1369 -20Q1269 -20 1190 31T1065 175T1020 392Q1020 514 1065 607T1190 753T1369 806Q1469 806 1547 753T1671 607T1716 392Q1716 268 1672 176T1549 32T1369 -20ZM1367
97Q1459 97 1507 172T1555 390Q1555 536 1507 612T1367 689Q1277 689 1229 612T1181 390Q1181 248 1228 173T1367 97Z" />
<glyph unicode="&amp;" horiz-adv-x="1458" d="M533 -10Q387 -10 288 37T139 169T89 363Q89 459 127 535T243 677T438 804Q383 863 343 916T282 1025T260 1145Q260 1236 309 1309T445 1425T647 1468Q758 1468 851 1430T1000 1322T1056 1158Q1056 1117 1040 1072T985
976T882 874T720 768L1012 426Q1029 454 1055 507T1103 632T1131 790H1345Q1328 691 1292 606T1210 445T1117 299L1372 0H1124L988 156Q876 67 760 29T533 -10ZM582 159Q659 159 740 193T882 285L545 677Q448 623 384 546T327 371Q331 305 367 258T460 185T582
159ZM627 883Q722 939 773 984T844 1070T863 1152Q863 1215 833 1254T755 1310T656 1327Q568 1326 521 1276T473 1158Q473 1113 492 1069T539 987T590 923L627 883Z" />
<glyph unicode="&apos;" horiz-adv-x="503" d="M192 954L129 1446H374L309 954H192Z" />
<glyph unicode="(" horiz-adv-x="622" d="M406 -258Q324 -117 263 19T168 303T134 620Q134 868 213 1096T419 1510H568Q465 1316 400 1086T335 618Q335 393 391 180T554 -258H406Z" />
<glyph unicode=")" horiz-adv-x="633" d="M48 -258Q155 -33 211 180T268 618Q268 856 203 1086T35 1510H183Q310 1325 389 1097T469 620Q469 450 436 303T341 20T196 -258H48Z" />
<glyph unicode="*" horiz-adv-x="831" d="M255 733L132 818L326 1056L54 1132L102 1264L360 1157L341 1446H492L471 1156L733 1270L775 1139L510 1057L699 827L576 739L417 998L255 733Z" />
<glyph unicode="+" horiz-adv-x="1128" d="M484 285L483 1171H646L647 285H484ZM121 645V808L1007 809V646L121 645Z" />
<glyph unicode="," horiz-adv-x="502" d="M89 -259L202 -5L111 1V239H359V31L181 -259H89Z" />
<glyph unicode="-" horiz-adv-x="763" d="M123 433V597L641 598V435L123 433Z" />
<glyph unicode="." horiz-adv-x="474" d="M107 0V258H354V0H107Z" />
<glyph unicode="/" horiz-adv-x="718" d="M26 -66L528 1446H688L186 -66H26Z" />
<glyph unicode="0" horiz-adv-x="1242" d="M621 -22Q376 -22 235 165T94 718Q94 963 159 1129T342 1381T622 1466Q863 1466 1005 1277T1148 720Q1148 355 1007 167T621 -22ZM622 160Q770 160 844 290T918 719Q918 1023 843 1156T621 1290Q475 1290 398 1156T321
719Q321 422 397 291T622 160Z" />
<glyph unicode="1" horiz-adv-x="825" d="M365 0V1132H91V1265Q219 1265 292 1285T398 1346T435 1446H584V0H365Z" />
<glyph unicode="2" horiz-adv-x="1213" d="M121 0V121V185Q121 295 162 376T272 517T421 625T584 715T733 804T842 909T884 1047Q884 1151 811 1216T613 1281Q480 1281 397 1206T301 999H91Q94 1128 154 1234T331 1403T621 1466Q771 1466 880 1414T1050 1267T1110
1048Q1110 937 1069 857T962 719T815 617T655 532T508 447T400 346T359 211V186H1115V0H121Z" />
<glyph unicode="3" horiz-adv-x="1279" d="M616 -22Q460 -21 344 33T163 188T94 424H305Q326 293 411 226T622 158Q724 158 798 189T914 276T955 406Q955 486 911 542T789 627T615 659L482 662V840L606 844Q697 846 767 878T878 964T918 1081Q918 1139 883 1187T781
1263T621 1292Q546 1292 479 1264T368 1176T320 1018H110Q110 1163 179 1262T365 1414T624 1466Q777 1466 895 1423T1080 1296T1148 1089Q1148 982 1082 897T875 763Q966 738 1036 690T1145 569T1185 402Q1185 301 1142 222T1022 88T841 5T616 -22Z" />
<glyph unicode="4" horiz-adv-x="1272" d="M768 0V356H91V544L761 1446H976V541H1211V356H976V0H768ZM293 541H765V1174L293 541Z" />
<glyph unicode="5" horiz-adv-x="1300" d="M669 -22Q533 -22 417 24T218 152T94 341L273 426Q309 348 362 287T487 191T652 156Q799 156 889 239T979 466Q979 555 937 622T824 726T665 764Q610 764 562 755T467 718T366 636Q358 632 355 632T341 637L170 699L236
1446H1117L1110 1265H413L379 830Q453 890 535 916T713 943Q848 943 959 889T1138 731T1205 473Q1205 322 1139 211T953 39T669 -22Z" />
<glyph unicode="6" horiz-adv-x="1266" d="M656 -22Q484 -22 358 65T163 314T94 699Q94 933 161 1105T357 1372T671 1466Q795 1466 900 1420T1074 1288T1156 1078H957Q929 1178 857 1234T675 1291Q554 1291 473 1223T355 1023T331 707Q359 773 413 822T539 899T691
926Q835 926 943 871T1111 714T1172 472Q1172 328 1109 217T929 42T656 -22ZM652 150Q736 150 801 189T905 299T943 462Q943 555 908 621T808 722T651 757Q576 757 508 723T397 632T354 510Q352 403 389 322T494 196T652 150Z" />
<glyph unicode="7" horiz-adv-x="1215" d="M352 0Q366 96 405 239T510 552T672 906T893 1265H91V1446H1124V1265Q1049 1164 975 1035T835 765T715 483T627 218T585 0H352Z" />
<glyph unicode="8" horiz-adv-x="1308" d="M653 -22Q485 -22 359 29T164 174T94 394Q94 478 136 554T244 684T381 751Q285 793 221 872T157 1068Q157 1196 222 1284T400 1419T653 1466Q795 1466 907 1420T1084 1285T1149 1068Q1149 952 1087 873T926 751Q998 737
1063 684T1171 555T1214 394Q1214 268 1145 175T949 30T653 -22ZM653 147Q805 147 894 215T984 397Q984 472 944 530T829 622T653 656Q553 656 479 623T365 531T324 397Q324 284 413 216T653 147ZM653 839Q777 839 854 901T932 1073Q932 1184 854 1248T653 1312Q531
1312 453 1248T375 1073Q375 963 453 901T653 839Z" />
<glyph unicode="9" horiz-adv-x="1268" d="M591 -22Q467 -22 360 25T183 159T98 366H304Q327 271 401 212T584 153Q705 153 793 215T924 408T957 746Q931 676 878 624T752 541T590 511Q446 511 336 567T164 726T102 974Q102 1118 164 1229T341 1403T613 1466Q785
1466 911 1379T1105 1131T1173 747Q1173 499 1105 328T907 67T591 -22ZM618 689Q693 689 761 723T872 813T916 935Q917 1043 880 1124T775 1250T616 1296Q534 1296 470 1257T370 1147T333 984Q333 847 407 768T618 689Z" />
<glyph unicode=":" horiz-adv-x="475" d="M107 741V997H355V741H107ZM107 6V261H355V6H107Z" />
<glyph unicode=";" horiz-adv-x="501" d="M107 -292L226 0H133V256H381V29L198 -292H107ZM128 735V994H376V735H128Z" />
<glyph unicode="&lt;" horiz-adv-x="1109" d="M986 259L121 596V784L987 1126V931L369 689L986 451V259Z" />
<glyph unicode="=" horiz-adv-x="1128" d="M121 838V1000L1007 1001V839L121 838ZM121 390V553L1007 554V391L121 390Z" />
<glyph unicode="&gt;" horiz-adv-x="1108" d="M122 259V451L740 689L121 931V1126L987 784V596L122 259Z" />
<glyph unicode="?" horiz-adv-x="1049" d="M402 394Q402 507 438 589T527 737T634 859T723 976T760 1111Q760 1203 694 1256T523 1309Q461 1309 402 1284T296 1214T227 1114L39 1166Q103 1309 230 1387T524 1466Q661 1466 763 1421T921 1298T977 1121Q977 1020
937 947T838 814T720 695T621 564T581 394H402ZM368 0V255H615V0H368Z" />
<glyph unicode="@" horiz-adv-x="1660" d="M845 -220Q667 -220 527 -163T289 -6T139 226T88 509Q88 667 144 807T304 1056T553 1226T879 1288Q1007 1288 1130 1252T1354 1140T1513 946T1572 662Q1572 513 1523 400T1388 222T1192 158Q1113 158 1071 185T1012 258Q1007
270 1003 270T989 259Q946 204 880 167T722 130Q645 130 581 172T478 292T439 475Q439 597 487 700T621 864T823 926Q904 926 956 894T1043 811Q1046 807 1051 808T1057 818L1072 876H1209L1135 436Q1122 355 1141 325T1206 294Q1263 294 1313 335T1394 456T1425
650Q1425 790 1378 886T1252 1042T1075 1129T878 1156Q719 1156 600 1105T400 964T278 757T237 509Q237 378 279 268T402 76T603 -49T875 -93Q965 -93 1027 -76T1139 -31T1239 31L1314 -69Q1231 -135 1111 -177T845 -220ZM758 274Q820 274 871 310T956 405T998
533Q1007 613 986 668T924 753T834 783Q768 783 717 743T636 637T606 488Q606 394 645 334T758 274Z" />
<glyph unicode="A" horiz-adv-x="1429" d="M75 0L597 1446H833L1354 0H1138L1002 379H429L292 0H75ZM482 573H946L714 1238L482 573Z" />
<glyph unicode="B" horiz-adv-x="1348" d="M183 0V1446H664Q933 1446 1069 1349T1206 1069Q1206 956 1148 875T943 738Q1029 719 1087 684T1178 602T1226 502T1241 390Q1241 193 1103 97T681 0H183ZM397 174H682Q850 174 937 231T1024 404Q1024 487 981 540T865
618T702 643H397V174ZM397 820H702Q756 820 808 831T903 867T972 936T998 1041Q998 1159 909 1216T678 1273H397V820Z" />
<glyph unicode="C" horiz-adv-x="1393" d="M730 -20Q534 -20 394 70T180 328T105 730Q105 963 179 1127T393 1379T730 1466Q886 1466 1007 1402T1201 1230T1289 991H1061Q1046 1073 1004 1139T891 1244T725 1283Q602 1283 516 1225T386 1044T341 727Q341 434 440
299T725 163Q821 163 891 204T1003 315T1061 467H1289Q1277 372 1239 285T1134 128T966 20T730 -20Z" />
<glyph unicode="D" horiz-adv-x="1401" d="M183 0V1446Q191 1446 230 1446T326 1445T440 1446T545 1444Q810 1440 976 1356T1219 1115T1297 731Q1297 496 1214 333T961 85T529 0H183ZM401 180H531Q695 180 816 233T1005 407T1072 730Q1072 928 1008 1045T825 1214T537
1266H401V180Z" />
<glyph unicode="E" horiz-adv-x="1249" d="M183 0V1446H1117L1116 1260H398V821H1039V638H397V189L1134 188V0H183Z" />
<glyph unicode="F" horiz-adv-x="1198" d="M183 0V1446H1107L1106 1262H401V815H1028V633H401V0H183Z" />
<glyph unicode="G" horiz-adv-x="1480" d="M729 -20Q536 -20 396 68T181 321T105 719Q105 953 182 1120T403 1377T739 1466Q854 1466 952 1427T1126 1321T1246 1169T1296 991H1068Q1054 1068 1009 1133T893 1239T735 1279Q618 1279 528 1221T388 1041T337 724Q337
573 368 467T455 296T584 202T742 172Q825 172 888 201T993 276T1059 375T1087 479L1094 596H756V750L1317 748V0H1162V212Q1124 153 1067 100T927 14T729 -20Z" />
<glyph unicode="H" horiz-adv-x="1534" d="M183 0V1446H397V840H1137V1446H1351V0H1137V654H397V0H183Z" />
<glyph unicode="I" horiz-adv-x="580" d="M183 0V1446H397V0H183Z" />
<glyph unicode="J" horiz-adv-x="784" d="M313 -20Q239 -20 170 -4T75 21L86 223Q117 213 156 199T253 184Q351 184 387 238T423 417V1446H638V358Q638 236 611 152T513 24T313 -20Z" />
<glyph unicode="K" horiz-adv-x="1383" d="M183 0V1446H406V721L1021 1446H1273L801 880L1317 0H1079L646 724L406 445V0H183Z" />
<glyph unicode="L" horiz-adv-x="1155" d="M183 0L184 1446H401V188H1069V0H183Z" />
<glyph unicode="M" horiz-adv-x="1788" d="M183 0V1446H485L892 296L1305 1446H1605V0H1386V1152L986 0H799L401 1143V0H183Z" />
<glyph unicode="N" horiz-adv-x="1523" d="M183 0V1446H390L1126 368V1446H1341V0H1149L397 1101V0H183Z" />
<glyph unicode="O" horiz-adv-x="1482" d="M744 -20Q547 -20 404 67T183 320T105 720Q105 956 183 1122T405 1377T744 1466Q938 1466 1080 1378T1300 1123T1378 720Q1378 486 1301 321T1082 68T744 -20ZM744 163Q870 163 959 221T1096 402T1143 717Q1143 914 1096
1039T959 1223T744 1283Q619 1283 529 1223T389 1038T340 717Q340 524 389 402T528 221T744 163Z" />
<glyph unicode="P" horiz-adv-x="1282" d="M183 0V1446H684Q839 1446 961 1393T1154 1237T1225 984Q1225 840 1161 739T981 584T713 530H401V0H183ZM400 705H707Q845 705 932 784T1019 996Q1019 1130 929 1201T699 1273H400V705Z" />
<glyph unicode="Q" horiz-adv-x="1509" d="M1368 -243Q1291 -243 1211 -226T1055 -158T912 -3Q862 -11 823 -15T743 -20Q548 -20 405 66T184 317T105 720Q105 957 183 1123T404 1378T743 1466Q938 1466 1081 1378T1301 1124T1378 720Q1378 503 1314 346T1108 90Q1141
15 1211 -23T1368 -65V-243ZM743 163Q934 163 1039 295T1145 718Q1145 1008 1041 1145T743 1283Q550 1283 446 1145T341 716Q341 427 446 295T743 163Z" />
<glyph unicode="R" horiz-adv-x="1363" d="M183 0V1446H757Q918 1446 1024 1397T1182 1256T1234 1041Q1234 924 1195 846T1093 719T961 642L1241 0H1016L760 605H397V0H183ZM397 778H699Q850 778 933 843T1016 1031Q1016 1151 941 1213T736 1275H397V778Z" />
<glyph unicode="S" horiz-adv-x="1352" d="M687 -20Q581 -20 484 6T307 83T176 212T111 392H334Q351 314 401 261T528 181T698 154Q784 154 857 181T975 259T1020 384Q1020 467 965 515T798 593L508 665Q403 690 323 736T199 859T155 1049Q155 1175 224 1268T413
1413T684 1464Q857 1464 975 1405T1155 1250T1218 1040H1000Q991 1132 946 1186T831 1265T677 1289Q529 1289 455 1224T380 1068Q380 985 434 937T596 863L876 794Q1008 765 1087 708T1202 573T1237 403Q1237 280 1168 185T976 35T687 -20Z" />
<glyph unicode="T" horiz-adv-x="1199" d="M502 0V1251H44V1446H1155V1251H718V0H502Z" />
<glyph unicode="U" horiz-adv-x="1414" d="M725 -20Q531 -20 412 44T238 231T183 531V1446H404V504Q404 332 488 249T725 165Q826 165 899 201T1012 313T1051 504V1446H1268V514Q1268 345 1212 226T1037 43T725 -20Z" />
<glyph unicode="V" horiz-adv-x="1362" d="M555 0L44 1446H253L681 245L1108 1446H1318L807 0H555Z" />
<glyph unicode="W" horiz-adv-x="1915" d="M463 0L44 1446H258L564 348L874 1446H1038L1348 348L1658 1446H1871L1448 0H1260L955 1073L646 0H463Z" />
<glyph unicode="X" horiz-adv-x="1392" d="M75 0L563 737L92 1446H356L697 917L1035 1446H1267L810 761L1317 0H1051L678 576L310 0H75Z" />
<glyph unicode="Y" horiz-adv-x="1247" d="M518 0V614L22 1446H256L626 803L991 1446H1225L732 613V0H518Z" />
<glyph unicode="Z" horiz-adv-x="1292" d="M122 0V113L898 1262H160V1446H1200V1338L416 186H1195V0H122Z" />
<glyph unicode="[" horiz-adv-x="625" d="M172 -322L171 1446H567V1315H355L354 -190H566V-322H172Z" />
<glyph unicode="\" horiz-adv-x="718" d="M527 -66L26 1446H186L688 -66H527Z" />
<glyph unicode="]" horiz-adv-x="625" d="M59 -322V-190H271L270 1315H58V1446H454L453 -322H59Z" />
<glyph unicode="^" horiz-adv-x="952" d="M694 253L469 818L242 255H84L385 982Q404 1027 436 1043T500 1046T553 983L855 253H694Z" />
<glyph unicode="_" horiz-adv-x="1054" d="M121 -248V-85L929 -84V-247L121 -248Z" />
<glyph unicode="`" horiz-adv-x="462" d="M290 1155L10 1446H246L452 1155H290Z" />
<glyph unicode="a" horiz-adv-x="1113" d="M440 -20Q340 -20 263 16T141 120T97 284Q97 456 218 541T608 631L778 636V711Q778 800 725 851T561 901Q479 901 414 863T329 738H144Q150 841 203 911T351 1018T571 1054Q713 1054 804 1016T939 903T984 723V0H802L786
190Q728 71 639 26T440 -20ZM507 129Q556 129 604 146T691 194T753 263T778 341V512L638 509Q531 508 457 487T343 422T303 305Q303 222 360 176T507 129Z" />
<glyph unicode="b" horiz-adv-x="1200" d="M674 -20Q587 -20 526 3T426 62T364 138T329 212L306 0H145V1486H361V877Q375 904 402 935T471 993T568 1037T692 1054Q885 1054 998 918T1112 522Q1112 358 1063 237T917 48T674 -20ZM632 141Q750 141 824 233T899 529Q899
705 830 798T629 891Q535 891 476 850T390 727T361 529Q361 322 425 232T632 141Z" />
<glyph unicode="c" d="M570 -20Q430 -20 321 41T150 222T88 513Q88 674 145 796T311 986T570 1054Q687 1054 777 1009T923 882T992 693H806Q798 744 768 788T689 858T572 885Q447 885 369 794T291 515Q291 343 364 241T575 139Q643 139 692 167T770 239T808 330H990Q978
226 922 147T775 24T570 -20Z" />
<glyph unicode="d" horiz-adv-x="1200" d="M526 -20Q323 -20 206 119T88 522Q88 683 135 802T276 988T508 1054Q577 1054 632 1037T728 993T797 935T839 877V1486H1055V0H894L870 212Q859 178 837 138T775 62T674 3T526 -20ZM567 141Q711 141 775 231T839 529Q838
646 811 727T725 849T571 891Q452 891 377 806T301 529Q301 341 369 241T567 141Z" />
<glyph unicode="e" horiz-adv-x="1139" d="M593 -20Q446 -20 334 43T160 225T97 506Q97 667 154 790T319 984T579 1054Q728 1054 831 990T987 811T1040 538V467H312Q311 374 342 301T434 185T588 142Q681 142 748 184T837 309H1035Q1017 203 950 129T789 18T593
-20ZM312 606H836Q836 687 808 753T723 858T578 897Q489 897 430 854T342 744T312 606Z" />
<glyph unicode="f" horiz-adv-x="792" d="M277 0V880H66V1034H277V1191Q277 1315 342 1380T536 1446H743L744 1298H594Q533 1298 511 1266T488 1166V1034H734V880H492V0H277Z" />
<glyph unicode="g" horiz-adv-x="1248" d="M594 -342Q342 -342 204 -272T66 -75Q66 -20 92 18T155 82T223 121T263 142Q246 152 220 167T172 209T151 279Q151 329 198 371T342 434Q248 480 196 558T144 724Q144 825 201 898T361 1011T605 1050Q708 1050 776 1027T903
963Q922 970 957 984T1035 1016T1115 1049T1178 1075L1177 889L997 856Q1011 826 1019 790T1028 724Q1028 634 979 559T832 438T587 393Q573 393 551 393T514 396Q421 393 386 375T351 334Q351 306 396 296T544 279Q581 276 638 273T766 265Q936 255 1025 180T1115
-19Q1115 -161 986 -251T594 -342ZM631 -211Q768 -211 838 -172T908 -54Q908 4 863 41T728 84L452 102Q411 104 371 84T304 29T278 -50Q278 -128 364 -169T631 -211ZM593 524Q697 524 760 574T824 720Q824 818 761 871T593 925Q488 925 424 871T359 720Q359 628
420 576T593 524Z" />
<glyph unicode="h" horiz-adv-x="1162" d="M145 0V1486H356V883Q381 924 423 961T527 1021T671 1045Q772 1045 853 1008T983 900T1032 732V0H818V693Q818 780 758 827T604 874Q541 874 485 853T394 789T359 682V0H145Z" />
<glyph unicode="i" horiz-adv-x="505" d="M150 0V1034H356V0H150ZM145 1234V1445H360V1234H145Z" />
<glyph unicode="j" horiz-adv-x="539" d="M88 -332Q5 -332 -18 -320T-42 -307V-164L54 -158Q121 -152 148 -122T176 -26V1034H390V-32Q390 -183 322 -257T88 -332ZM170 1234V1445H394V1234H170Z" />
<glyph unicode="k" horiz-adv-x="1133" d="M145 0V1486H359V541L816 1034H1056L682 635L1078 0H856L545 499L359 306V0H145Z" />
<glyph unicode="l" horiz-adv-x="620" d="M425 -14Q333 -14 278 10T193 74T155 166T145 273V1486H356V295Q356 223 384 185T472 142L526 140V4Q501 -4 475 -9T425 -14Z" />
<glyph unicode="m" horiz-adv-x="1746" d="M145 0V1034H353V885Q397 953 473 1003T669 1054Q725 1054 782 1035T888 979T965 886Q1014 960 1096 1007T1280 1054Q1335 1054 1394 1037T1503 978T1585 863T1617 678V0H1402V655Q1402 740 1374 788T1300 855T1203 875Q1157
875 1107 857T1022 797T987 683V0H773V701Q773 758 743 797T667 855T576 875Q526 875 476 855T393 793T359 683V0H145Z" />
<glyph unicode="n" horiz-adv-x="1163" d="M145 0V1034H354V885Q379 927 421 964T526 1024T671 1047Q768 1047 850 1009T983 889T1033 678V0H819V655Q819 766 760 820T606 874Q543 874 486 853T394 790T359 683V0H145Z" />
<glyph unicode="o" horiz-adv-x="1136" d="M569 -20Q424 -20 316 42T148 224T88 512Q88 675 145 797T309 986T570 1054Q716 1054 823 991T989 806T1048 512Q1048 355 993 235T832 48T569 -20ZM570 145Q659 145 718 191T807 322T837 518Q837 621 811 705T726 840T570
890Q481 890 421 845T330 716T300 518Q300 417 327 332T413 196T570 145Z" />
<glyph unicode="p" horiz-adv-x="1197" d="M145 -322V1034H359L361 862Q380 896 410 929T481 991T576 1037T695 1054Q817 1054 910 998T1056 825T1109 529Q1109 349 1057 227T907 43T677 -20Q613 -20 562 -2T472 45T406 109T360 178V-322H145ZM632 143Q751 143
827 235T904 525Q904 694 834 792T632 891Q497 891 428 789T359 525Q359 420 389 334T481 195T632 143Z" />
<glyph unicode="q" horiz-adv-x="1197" d="M837 -322V178Q819 144 792 110T725 46T635 -2T520 -20Q398 -20 300 37T145 215T88 529Q88 697 136 814T278 993T502 1054Q568 1054 621 1037T716 992T787 930T836 862L839 1034H1052V-322H837ZM565 143Q656 143 717
195T808 333T839 525Q839 686 771 788T565 891Q447 891 370 800T293 525Q293 344 364 244T565 143Z" />
<glyph unicode="r" horiz-adv-x="793" d="M145 0V1034H350V822Q376 898 422 949T531 1027T662 1054Q683 1054 702 1052T732 1043V837Q719 843 699 845T663 848Q595 853 539 841T443 801T381 728T359 622V0H145Z" />
<glyph unicode="s" horiz-adv-x="1023" d="M530 -20Q422 -20 328 14T170 121T90 308H281Q294 249 330 211T418 154T529 135Q627 135 688 170T749 280Q749 333 716 365T613 412L407 461Q279 491 202 556T124 740Q124 831 169 902T305 1013T529 1054Q704 1054 810
976T920 750H735Q725 821 671 861T527 902Q435 902 376 866T317 754Q317 703 360 674T489 625L685 576Q761 556 810 524T887 452T926 371T938 292Q938 194 889 125T748 18T530 -20Z" />
<glyph unicode="t" horiz-adv-x="793" d="M542 -7Q427 -7 364 24T276 113T251 255V880H83V1034H258L310 1338H466V1035H698V880H466L467 263Q467 212 477 189T513 159T583 152H703V13Q684 5 645 -1T542 -7Z" />
<glyph unicode="u" horiz-adv-x="1169" d="M525 -20Q447 -19 376 3T250 69T162 178T129 329V1034H344V352Q344 259 402 201T577 143Q683 143 747 198T811 361V1034H1024V0H858L834 200Q816 119 770 71T660 1T525 -20Z" />
<glyph unicode="v" horiz-adv-x="1018" d="M420 0L42 1034H240L502 271H516L778 1034H976L600 0H420Z" />
<glyph unicode="w" horiz-adv-x="1564" d="M370 0L46 1034H241L467 281H481L702 1034H861L1089 283H1103L1321 1034H1519L1198 0H1002L778 726L563 0H370Z" />
<glyph unicode="x" horiz-adv-x="1142" d="M55 0L453 538L88 1034H318L572 691L826 1034H1056L688 538L1087 0H857L571 387L286 0H55Z" />
<glyph unicode="y" horiz-adv-x="1085" d="M264 -330Q169 -330 133 -316T96 -302V-164L201 -166Q261 -169 300 -159T361 -132T395 -94T413 -57L445 30L42 1034H256L546 270L835 1034H1044L613 -58Q569 -166 517 -225T401 -307T264 -330Z" />
<glyph unicode="z" horiz-adv-x="970" d="M73 0V128L636 879H98V1034H893V906L329 155H897V0H73Z" />
<glyph unicode="{" horiz-adv-x="686" d="M520 -322Q441 -322 379 -296T281 -222T245 -104V321Q245 368 221 410T147 480T19 507V628Q137 629 191 682T245 822V1233Q245 1301 282 1348T380 1421T516 1446H629V1315H553Q500 1315 474 1303T438 1267T429 1212V794Q427
721 398 674T323 603T228 574Q216 573 216 568T228 561Q276 557 321 536T397 466T429 337V-84Q429 -139 455 -164T554 -190H629V-322H520Z" />
<glyph unicode="|" horiz-adv-x="529" d="M184 -322L183 1652H346V-322H184Z" />
<glyph unicode="}" horiz-adv-x="692" d="M36 -322V-190H111Q184 -190 210 -165T236 -84V337Q237 418 267 466T343 535T437 561Q451 563 450 568T437 574Q388 579 343 603T267 674T236 794V1212Q236 1243 227 1266T191 1302T112 1315H36V1446H149Q223 1446 284
1421T383 1349T420 1233V822Q420 735 474 682T646 628V507Q568 507 519 480T445 411T420 321V-104Q420 -173 384 -221T286 -296T145 -322H36Z" />
<glyph unicode="~" horiz-adv-x="1160" d="M177 591L116 708Q177 769 241 812T398 856Q457 856 503 839T592 801T676 763T768 746Q842 746 891 782T972 866L1036 749Q996 683 928 643T771 603Q711 603 664 619T576 658T492 696T399 713Q323 713 271 675T177 591Z" />
<glyph unicode="&#xa0;" horiz-adv-x="476" />
<glyph unicode="&#xa1;" horiz-adv-x="520" d="M126 -322L185 643H324L381 -322H126ZM129 779V1034H376V779H129Z" />
<glyph unicode="&#xa2;" horiz-adv-x="1095" d="M588 202Q447 202 338 263T168 444T106 735Q106 896 163 1018T328 1208T588 1276Q704 1276 794 1231T941 1104T1009 915H824Q815 966 786 1010T707 1080T589 1107Q465 1107 387 1016T309 737Q309 565 381 463T593
361Q660 361 709 389T788 461T825 552H1007Q996 448 940 369T793 246T588 202ZM508 0V300H660V0H508ZM508 1146V1446H660V1146H508Z" />
<glyph unicode="&#xa3;" horiz-adv-x="1245" d="M33 0V182H106Q182 182 233 242T284 437Q284 487 279 543T262 685H59V815H237L210 984Q189 1099 215 1188T303 1339T450 1433T630 1466Q729 1466 814 1434T961 1346T1055 1215L866 1152Q833 1221 786 1254T660 1288Q599
1288 550 1264T472 1193T443 1080Q443 1027 454 959T486 816H800V686H504Q513 616 515 566T511 462Q506 384 488 331T444 243T395 184H721Q822 184 879 220T970 346L1153 301Q1106 151 1002 76T735 0H33Z" />
<glyph unicode="&#xa4;" horiz-adv-x="1100" d="M193 278L95 381L218 502Q183 553 166 607T149 727Q149 845 209 936Q218 953 206 965L96 1076L195 1177L319 1051Q367 1085 425 1103T542 1122Q661 1122 756 1059Q770 1051 780 1061L888 1170L986 1069L867 951Q901
902 919 846T938 728Q938 671 923 616T875 516Q868 504 876 496L988 388L890 287L771 405Q722 371 665 352T546 332Q428 332 332 393Q316 404 304 390L193 278ZM546 486Q615 486 669 519T755 608T787 728Q787 792 756 847T670 936T546 970Q477 970 422 936T336
847T304 728Q304 663 335 608T422 520T546 486Z" />
<glyph unicode="&#xa5;" horiz-adv-x="1249" d="M508 0V604L4 1446H282L649 807L1017 1446H1245L752 638V0H508ZM205 255V382L1056 383V256L205 255ZM205 553V681L1056 683V554L205 553Z" />
<glyph unicode="&#xa6;" horiz-adv-x="529" d="M184 847L183 1652H346V847H184ZM184 -322L183 484H346V-322H184Z" />
<glyph unicode="&#xa7;" horiz-adv-x="993" d="M507 -147Q404 -147 317 -117T166 -34T68 85L206 156Q250 90 324 43T506 -5Q597 -5 656 29T715 129Q715 176 677 217T532 301L365 364Q220 420 156 491T92 664Q92 757 145 823T282 925Q210 965 171 1005T116 1089T101
1178Q101 1260 147 1325T280 1428T483 1466Q577 1466 655 1437T790 1360T879 1258L741 1186Q696 1242 635 1283T492 1324Q400 1324 349 1290T297 1197Q297 1156 330 1120T440 1053L603 989Q763 926 833 850T904 664Q904 567 854 507T730 407Q821 356 866 296T912
153Q912 66 864 -1T725 -108T507 -147ZM556 485Q603 481 640 501T700 556T720 635Q717 690 684 731T554 810L451 850Q399 846 359 824T296 766T273 693Q273 643 306 609T442 532L556 485Z" />
<glyph unicode="&#xa8;" horiz-adv-x="638" d="M420 1251L422 1446H628L626 1251H420ZM10 1251L12 1446H218L216 1251H10Z" />
<glyph unicode="&#xa9;" horiz-adv-x="1641" d="M816 -20Q662 -20 528 37T291 197T131 434T73 724Q73 877 130 1011T290 1248T527 1408T816 1466Q970 1466 1104 1408T1341 1248T1501 1012T1559 724Q1559 569 1501 434T1341 197T1105 38T816 -20ZM821 312Q707 312
620 364T483 509T434 726Q434 850 484 944T621 1092T821 1145Q909 1145 974 1111T1085 1024T1157 912L1002 883Q973 942 932 981T828 1020Q734 1020 674 944T614 730Q614 589 675 513T835 437Q909 437 959 478T1044 585L1159 548Q1141 508 1112 467T1041 390T945
334T821 312ZM816 115Q941 115 1049 158T1240 280T1368 472T1414 724Q1414 862 1368 974T1240 1166T1050 1290T816 1334Q689 1334 580 1291T390 1167T263 974T218 724Q218 585 263 473T389 281T580 158T816 115Z" />
<glyph unicode="&#xaa;" horiz-adv-x="817" d="M313 793Q209 793 153 842T97 974Q97 1070 183 1127T426 1193L527 1201V1247Q527 1311 489 1336T394 1362Q346 1362 308 1343T239 1270L113 1302Q149 1380 217 1421T401 1463Q542 1462 604 1405T667 1249Q667 1168
667 1113T667 1010Q667 996 668 972T670 921T675 873L688 805H542L526 885Q472 838 424 816T313 793ZM364 891Q435 891 485 936Q504 954 515 971T527 1010V1114L443 1108Q345 1102 294 1069T243 982Q243 941 276 916T364 891Z" />
<glyph unicode="&#xab;" horiz-adv-x="934" d="M702 137L446 502L702 883H822L631 502L820 137H702ZM341 137L86 502L341 883H461L270 502L459 137H341Z" />
<glyph unicode="&#xac;" horiz-adv-x="1128" d="M121 645V808L1007 809V646L121 645ZM830 355L828 757H1007V355H830Z" />
<glyph unicode="&#xad;" horiz-adv-x="763" d="M123 433V597L641 598V435L123 433Z" />
<glyph unicode="&#xae;" horiz-adv-x="1085" d="M539 536Q409 536 304 598T136 765T73 1000Q73 1129 135 1235T303 1403T539 1466Q667 1466 772 1404T940 1235T1003 1000Q1003 871 941 766T773 598T539 536ZM539 635Q645 635 726 680T852 807T897 1000Q897 1111
852 1193T726 1321T539 1367Q431 1367 350 1322T224 1194T179 1000Q179 889 224 807T350 680T539 635ZM358 767V1228H568Q646 1228 689 1198T732 1109Q732 1058 703 1029T637 985L727 767H624L549 976H452V767H358ZM452 1048H560Q591 1048 613 1060T635 1102Q635
1126 617 1141T554 1157H452V1048Z" />
<glyph unicode="&#xaf;" horiz-adv-x="691" d="M29 1227V1373H654V1227H29Z" />
<glyph unicode="&#xb0;" horiz-adv-x="932" d="M462 1033Q369 1033 297 1073T184 1186T143 1352Q143 1445 184 1518T297 1632T462 1673Q553 1673 625 1632T739 1518T781 1352Q781 1259 739 1187T625 1074T462 1033ZM460 1162Q542 1162 590 1214T638 1350Q638 1433
590 1485T458 1537Q376 1537 327 1485T279 1350Q281 1267 329 1215T460 1162Z" />
<glyph unicode="&#xb1;" horiz-adv-x="1128" d="M121 104V266L1007 267V105L121 104ZM646 966L1007 967V804H646V443H484V804L121 803V965L484 966L483 1328H646V966Z" />
<glyph unicode="&#xb2;" horiz-adv-x="747" d="M63 747V826V865Q63 947 97 1003T186 1099T302 1172T417 1235T506 1307T541 1404Q541 1469 496 1508T374 1548Q295 1548 242 1503T181 1371H45Q45 1453 83 1520T195 1628T379 1669Q521 1669 604 1597T687 1405Q687
1324 653 1269T566 1175T453 1106T340 1045T253 977T219 882V870H691V747H63Z" />
<glyph unicode="&#xb3;" horiz-adv-x="816" d="M393 736Q243 737 155 814T64 1019H202Q214 937 267 896T396 854Q491 854 546 896T602 1004Q602 1074 546 1116T392 1160L308 1162V1279L387 1281Q442 1283 485 1302T553 1354T579 1426Q579 1480 531 1517T397 1555Q350
1555 308 1537T239 1482T211 1385H74Q74 1474 116 1537T232 1635T398 1669Q495 1669 569 1642T685 1562T728 1431Q728 1364 688 1312T563 1228Q645 1205 698 1149T752 1002Q752 917 705 857T576 766T393 736Z" />
<glyph unicode="&#xb4;" horiz-adv-x="462" d="M10 1155L216 1446H451L171 1155H10Z" />
<glyph unicode="&#xb5;" horiz-adv-x="1181" d="M129 -330V1060H349V355Q349 308 375 270T445 209T544 186Q622 186 690 231T814 351V1060H1036L1033 0H820V164Q742 95 682 62T552 23Q496 19 445 29T349 71V-330H129Z" />
<glyph unicode="&#xb6;" horiz-adv-x="1140" d="M506 -166V596Q383 601 289 655T141 801T88 1012Q88 1125 140 1224T294 1385T549 1446H1011V1318H888V-166H750V1318H645V-166H506Z" />
<glyph unicode="&#xb7;" horiz-adv-x="475" d="M107 609V848H355V609H107Z" />
<glyph unicode="&#xb8;" horiz-adv-x="485" d="M226 -415Q170 -415 120 -403T25 -364L58 -281Q86 -300 121 -314T200 -329Q253 -329 279 -311T306 -259Q306 -216 269 -195T143 -172Q133 -172 130 -169T130 -157L203 10H309L263 -110Q333 -112 373 -135T431 -191T448
-259Q448 -309 418 -344T337 -397T226 -415Z" />
<glyph unicode="&#xb9;" horiz-adv-x="488" d="M216 744V1452H45V1541Q163 1540 209 1567T260 1654H360V744H216Z" />
<glyph unicode="&#xba;" horiz-adv-x="811" d="M405 795Q307 795 236 837T127 955T88 1127Q88 1228 128 1304T239 1422T405 1465Q502 1465 573 1422T683 1303T722 1127Q722 1030 684 955T575 838T405 795ZM405 899Q488 899 529 960T570 1132Q570 1240 529 1300T405
1360Q323 1360 282 1300T241 1132Q241 1021 282 960T405 899Z" />
<glyph unicode="&#xbb;" horiz-adv-x="975" d="M485 137L675 502L483 883H603L857 502L603 137H485ZM125 137L314 502L123 883H242L496 502L242 137H125Z" />
<glyph unicode="&#xbc;" horiz-adv-x="1605" d="M216 536V1244H45V1333Q163 1332 209 1359T260 1446H360V536H216ZM352 -8L214 -6L1190 1462H1324L352 -8ZM1277 2V224H855V345L1274 911H1413V345H1560V224H1413V2H1277ZM989 345H1276V730L989 345Z" />
<glyph unicode="&#xbd;" horiz-adv-x="1752" d="M216 536V1244H45V1333Q163 1332 209 1359T260 1446H360V536H216ZM352 -8L214 -6L1190 1462H1324L352 -8ZM1068 -1V78V117Q1068 199 1102 255T1191 351T1307 424T1422 487T1511 559T1546 656Q1546 721 1501 760T1379
800Q1300 800 1247 755T1186 623H1050Q1050 705 1088 772T1200 880T1384 921Q1526 921 1609 849T1692 657Q1692 576 1658 521T1571 427T1458 358T1345 297T1258 229T1224 134V122H1696V-1H1068Z" />
<glyph unicode="&#xbe;" horiz-adv-x="1859" d="M393 526Q243 527 155 604T64 809H202Q214 727 267 686T396 644Q491 644 546 686T602 794Q602 864 546 906T392 950L308 952V1069L387 1071Q442 1073 485 1092T553 1144T579 1216Q579 1270 531 1307T397 1345Q350
1345 308 1327T239 1272T211 1175H74Q74 1264 116 1327T232 1425T398 1459Q495 1459 569 1432T685 1352T728 1221Q728 1154 688 1102T563 1018Q645 995 698 939T752 792Q752 707 705 647T576 556T393 526ZM606 -8L468 -6L1444 1462H1578L606 -8ZM1532 2V224H1110V345L1529
911H1668V345H1815V224H1668V2H1532ZM1244 345H1531V730L1244 345Z" />
<glyph unicode="&#xbf;" horiz-adv-x="1050" d="M517 -342Q371 -342 270 -297T117 -173T64 5Q64 88 93 146T166 248T261 332T357 415T430 515T459 648H639Q639 558 613 492T547 377T460 286T374 206T307 121T281 15Q281 -73 347 -126T518 -180Q580 -180 640 -155T746
-87T814 11L1002 -41Q938 -183 812 -262T517 -342ZM426 779V1034H674V779H426Z" />
<glyph unicode="&#xc0;" horiz-adv-x="1429" d="M75 0L597 1446H833L1354 0H1138L1002 379H429L292 0H75ZM482 573H946L714 1238L482 573ZM637 1567L357 1858H593L799 1567H637Z" />
<glyph unicode="&#xc1;" horiz-adv-x="1429" d="M75 0L597 1446H833L1354 0H1138L1002 379H429L292 0H75ZM482 573H946L714 1238L482 573ZM626 1567L832 1858H1067L787 1567H626Z" />
<glyph unicode="&#xc2;" horiz-adv-x="1429" d="M75 0L597 1446H833L1354 0H1138L1002 379H429L292 0H75ZM482 573H946L714 1238L482 573ZM385 1567L639 1801H791L1040 1567H851L713 1700L563 1567H385Z" />
<glyph unicode="&#xc3;" horiz-adv-x="1429" d="M75 0L597 1446H833L1354 0H1138L1002 379H429L292 0H75ZM482 573H946L714 1238L482 573ZM443 1624L405 1745Q439 1778 479 1801T579 1824Q630 1824 675 1810T763 1782T851 1767Q898 1767 933 1785T998 1826L1031
1691Q1004 1670 960 1650T851 1629Q797 1629 755 1642T674 1669T588 1682Q538 1682 507 1666T443 1624Z" />
<glyph unicode="&#xc4;" horiz-adv-x="1429" d="M75 0L597 1446H833L1354 0H1138L1002 379H429L292 0H75ZM482 573H946L714 1238L482 573ZM816 1663L818 1858H1024L1022 1663H816ZM406 1663L408 1858H614L612 1663H406Z" />
<glyph unicode="&#xc5;" horiz-adv-x="1429" d="M75 0L597 1446H833L1354 0H1138L1002 379H429L292 0H75ZM482 573H946L714 1238L482 573ZM715 1561Q628 1561 568 1622T507 1774Q507 1858 568 1917T715 1976Q774 1976 821 1949T897 1874T925 1770Q925 1682 865
1622T715 1561ZM713 1662Q757 1662 787 1694T818 1769Q818 1815 788 1844T713 1873Q671 1873 639 1844T607 1769Q607 1727 639 1695T713 1662Z" />
<glyph unicode="&#xc6;" horiz-adv-x="1985" d="M0 0L793 1446H1846L1845 1263H1157V820H1767V639H1157V184H1869V0H913V384H427L217 0H0ZM511 573H913V1297L511 573Z" />
<glyph unicode="&#xc7;" horiz-adv-x="1393" d="M709 -415Q653 -415 603 -403T508 -364L541 -281Q569 -300 604 -314T683 -329Q736 -329 762 -311T789 -259Q789 -216 752 -195T627 -172Q616 -172 613 -169T613 -157L686 10H792L746 -110Q816 -112 856 -135T914
-191T932 -259Q932 -309 901 -344T820 -397T709 -415ZM730 -20Q534 -20 394 70T180 328T105 730Q105 963 179 1127T393 1379T730 1466Q886 1466 1007 1402T1201 1230T1289 991H1061Q1046 1073 1004 1139T891 1244T725 1283Q602 1283 516 1225T386 1044T341 727Q341
434 440 299T725 163Q821 163 891 204T1003 315T1061 467H1289Q1277 372 1239 285T1134 128T966 20T730 -20Z" />
<glyph unicode="&#xc8;" horiz-adv-x="1249" d="M183 0V1446H1117L1116 1260H398V821H1039V638H397V189L1134 188V0H183ZM574 1567L294 1858H530L736 1567H574Z" />
<glyph unicode="&#xc9;" horiz-adv-x="1249" d="M183 0V1446H1117L1116 1260H398V821H1039V638H397V189L1134 188V0H183ZM564 1567L770 1858H1005L725 1567H564Z" />
<glyph unicode="&#xca;" horiz-adv-x="1249" d="M183 0V1446H1117L1116 1260H398V821H1039V638H397V189L1134 188V0H183ZM324 1567L578 1801H730L979 1567H790L652 1700L502 1567H324Z" />
<glyph unicode="&#xcb;" horiz-adv-x="1249" d="M183 0V1446H1117L1116 1260H398V821H1039V638H397V189L1134 188V0H183ZM754 1663L756 1858H962L960 1663H754ZM344 1663L346 1858H552L550 1663H344Z" />
<glyph unicode="&#xcc;" horiz-adv-x="580" d="M183 0V1446H397V0H183ZM213 1567L-67 1858H169L375 1567H213Z" />
<glyph unicode="&#xcd;" horiz-adv-x="580" d="M183 0V1446H397V0H183ZM202 1567L408 1858H643L363 1567H202Z" />
<glyph unicode="&#xce;" horiz-adv-x="580" d="M183 0V1446H397V0H183ZM-38 1567L216 1801H368L617 1567H428L290 1700L140 1567H-38Z" />
<glyph unicode="&#xcf;" horiz-adv-x="580" d="M183 0V1446H397V0H183ZM392 1663L394 1858H600L598 1663H392ZM-18 1663L-16 1858H190L188 1663H-18Z" />
<glyph unicode="&#xd0;" horiz-adv-x="1437" d="M70 639V805H755V639H70ZM218 0V1446Q226 1446 265 1446T361 1445T476 1446T581 1444Q846 1440 1011 1356T1254 1115T1332 731Q1332 496 1249 333T996 85T564 0H218ZM437 180H566Q730 180 851 233T1040 407T1107
730Q1107 928 1044 1045T860 1214T573 1266H437V180Z" />
<glyph unicode="&#xd1;" horiz-adv-x="1523" d="M183 0V1446H390L1126 368V1446H1341V0H1149L397 1101V0H183ZM490 1624L452 1745Q486 1778 526 1801T626 1824Q677 1824 722 1810T810 1782T898 1767Q945 1767 980 1785T1045 1826L1078 1691Q1051 1670 1007 1650T898
1629Q844 1629 802 1642T721 1669T635 1682Q585 1682 554 1666T490 1624Z" />
<glyph unicode="&#xd2;" horiz-adv-x="1482" d="M744 -20Q547 -20 404 67T183 320T105 720Q105 956 183 1122T405 1377T744 1466Q938 1466 1080 1378T1300 1123T1378 720Q1378 486 1301 321T1082 68T744 -20ZM744 163Q870 163 959 221T1096 402T1143 717Q1143
914 1096 1039T959 1223T744 1283Q619 1283 529 1223T389 1038T340 717Q340 524 389 402T528 221T744 163ZM666 1567L386 1858H622L828 1567H666Z" />
<glyph unicode="&#xd3;" horiz-adv-x="1482" d="M744 -20Q547 -20 404 67T183 320T105 720Q105 956 183 1122T405 1377T744 1466Q938 1466 1080 1378T1300 1123T1378 720Q1378 486 1301 321T1082 68T744 -20ZM744 163Q870 163 959 221T1096 402T1143 717Q1143
914 1096 1039T959 1223T744 1283Q619 1283 529 1223T389 1038T340 717Q340 524 389 402T528 221T744 163ZM655 1567L861 1858H1096L816 1567H655Z" />
<glyph unicode="&#xd4;" horiz-adv-x="1482" d="M744 -20Q547 -20 404 67T183 320T105 720Q105 956 183 1122T405 1377T744 1466Q938 1466 1080 1378T1300 1123T1378 720Q1378 486 1301 321T1082 68T744 -20ZM744 163Q870 163 959 221T1096 402T1143 717Q1143
914 1096 1039T959 1223T744 1283Q619 1283 529 1223T389 1038T340 717Q340 524 389 402T528 221T744 163ZM415 1567L669 1801H821L1070 1567H881L743 1700L593 1567H415Z" />
<glyph unicode="&#xd5;" horiz-adv-x="1482" d="M744 -20Q547 -20 404 67T183 320T105 720Q105 956 183 1122T405 1377T744 1466Q938 1466 1080 1378T1300 1123T1378 720Q1378 486 1301 321T1082 68T744 -20ZM744 163Q870 163 959 221T1096 402T1143 717Q1143
914 1096 1039T959 1223T744 1283Q619 1283 529 1223T389 1038T340 717Q340 524 389 402T528 221T744 163ZM472 1624L434 1745Q468 1778 508 1801T608 1824Q659 1824 704 1810T792 1782T880 1767Q927 1767 962 1785T1027 1826L1060 1691Q1033 1670 989 1650T880
1629Q826 1629 784 1642T703 1669T617 1682Q567 1682 536 1666T472 1624Z" />
<glyph unicode="&#xd6;" horiz-adv-x="1482" d="M744 -20Q547 -20 404 67T183 320T105 720Q105 956 183 1122T405 1377T744 1466Q938 1466 1080 1378T1300 1123T1378 720Q1378 486 1301 321T1082 68T744 -20ZM744 163Q870 163 959 221T1096 402T1143 717Q1143
914 1096 1039T959 1223T744 1283Q619 1283 529 1223T389 1038T340 717Q340 524 389 402T528 221T744 163ZM845 1663L847 1858H1053L1051 1663H845ZM435 1663L437 1858H643L641 1663H435Z" />
<glyph unicode="&#xd7;" horiz-adv-x="1100" d="M238 300L123 416L861 1156L977 1041L238 300ZM861 300L121 1039L236 1154L977 416L861 300Z" />
<glyph unicode="&#xd8;" horiz-adv-x="1515" d="M160 -27L53 80L222 263Q171 351 144 465T116 718Q116 954 194 1121T415 1377T754 1466Q889 1466 998 1424T1189 1298L1351 1471L1458 1366L1283 1176Q1335 1088 1362 973T1389 720Q1389 486 1312 321T1092 68T753
-20Q618 -20 509 21T320 142L160 -27ZM755 160Q929 160 1020 273T1120 625Q1125 721 1118 810T1089 982L468 295Q562 160 755 160ZM415 457L1038 1145Q992 1218 921 1253T754 1288Q578 1288 484 1167T381 796Q377 703 386 618T415 457Z" />
<glyph unicode="&#xd9;" horiz-adv-x="1414" d="M725 -20Q531 -20 412 44T238 231T183 531V1446H404V504Q404 332 488 249T725 165Q826 165 899 201T1012 313T1051 504V1446H1268V514Q1268 345 1212 226T1037 43T725 -20ZM649 1567L369 1858H605L811 1567H649Z" />
<glyph unicode="&#xda;" horiz-adv-x="1414" d="M725 -20Q531 -20 412 44T238 231T183 531V1446H404V504Q404 332 488 249T725 165Q826 165 899 201T1012 313T1051 504V1446H1268V514Q1268 345 1212 226T1037 43T725 -20ZM638 1567L844 1858H1079L799 1567H638Z" />
<glyph unicode="&#xdb;" horiz-adv-x="1414" d="M725 -20Q531 -20 412 44T238 231T183 531V1446H404V504Q404 332 488 249T725 165Q826 165 899 201T1012 313T1051 504V1446H1268V514Q1268 345 1212 226T1037 43T725 -20ZM398 1567L652 1801H804L1053 1567H864L726
1700L576 1567H398Z" />
<glyph unicode="&#xdc;" horiz-adv-x="1414" d="M725 -20Q531 -20 412 44T238 231T183 531V1446H404V504Q404 332 488 249T725 165Q826 165 899 201T1012 313T1051 504V1446H1268V514Q1268 345 1212 226T1037 43T725 -20ZM828 1663L830 1858H1036L1034 1663H828ZM418
1663L420 1858H626L624 1663H418Z" />
<glyph unicode="&#xdd;" horiz-adv-x="1247" d="M518 0V614L22 1446H256L626 803L991 1446H1225L732 613V0H518ZM557 1569L763 1860H998L718 1569H557Z" />
<glyph unicode="&#xde;" horiz-adv-x="1318" d="M183 0V1446H401V1155H719Q878 1155 1000 1111T1191 976T1260 746Q1260 601 1191 507T1002 367T726 320H401V0H183ZM401 503H718Q813 503 884 526T996 603T1037 746Q1037 830 997 879T883 950T710 972H401V503Z" />
<glyph unicode="&#xdf;" horiz-adv-x="1199" d="M711 -20Q635 -20 562 -1T439 49L510 187Q549 164 592 146T699 127Q797 127 857 173T917 305Q917 368 886 405T802 467T686 514Q633 535 584 562T504 635T472 750Q472 825 512 874T628 970Q665 995 699 1020T757
1077T780 1156Q780 1220 733 1259T596 1299Q488 1299 423 1233T358 1044V0H147L145 1005Q146 1098 175 1178T261 1318T405 1412T611 1446Q739 1446 819 1408T939 1306T978 1164Q978 1089 948 1040T862 955T733 885Q681 858 660 841T638 794Q638 764 658 751T730
720Q793 696 860 667T984 594T1078 487T1114 326Q1114 213 1062 136T918 20T711 -20Z" />
<glyph unicode="&#xe0;" horiz-adv-x="1113" d="M440 -20Q340 -20 263 16T141 120T97 284Q97 456 218 541T608 631L778 636V711Q778 800 725 851T561 901Q479 901 414 863T329 738H144Q150 841 203 911T351 1018T571 1054Q713 1054 804 1016T939 903T984 723V0H802L786
190Q728 71 639 26T440 -20ZM507 129Q556 129 604 146T691 194T753 263T778 341V512L638 509Q531 508 457 487T343 422T303 305Q303 222 360 176T507 129ZM495 1155L215 1446H451L657 1155H495Z" />
<glyph unicode="&#xe1;" horiz-adv-x="1113" d="M440 -20Q340 -20 263 16T141 120T97 284Q97 456 218 541T608 631L778 636V711Q778 800 725 851T561 901Q479 901 414 863T329 738H144Q150 841 203 911T351 1018T571 1054Q713 1054 804 1016T939 903T984 723V0H802L786
190Q728 71 639 26T440 -20ZM507 129Q556 129 604 146T691 194T753 263T778 341V512L638 509Q531 508 457 487T343 422T303 305Q303 222 360 176T507 129ZM484 1155L690 1446H925L645 1155H484Z" />
<glyph unicode="&#xe2;" horiz-adv-x="1113" d="M440 -20Q340 -20 263 16T141 120T97 284Q97 456 218 541T608 631L778 636V711Q778 800 725 851T561 901Q479 901 414 863T329 738H144Q150 841 203 911T351 1018T571 1054Q713 1054 804 1016T939 903T984 723V0H802L786
190Q728 71 639 26T440 -20ZM507 129Q556 129 604 146T691 194T753 263T778 341V512L638 509Q531 508 457 487T343 422T303 305Q303 222 360 176T507 129ZM244 1155L498 1389H650L899 1155H710L572 1288L422 1155H244Z" />
<glyph unicode="&#xe3;" horiz-adv-x="1113" d="M440 -20Q340 -20 263 16T141 120T97 284Q97 456 218 541T608 631L778 636V711Q778 800 725 851T561 901Q479 901 414 863T329 738H144Q150 841 203 911T351 1018T571 1054Q713 1054 804 1016T939 903T984 723V0H802L786
190Q728 71 639 26T440 -20ZM507 129Q556 129 604 146T691 194T753 263T778 341V512L638 509Q531 508 457 487T343 422T303 305Q303 222 360 176T507 129ZM301 1212L263 1333Q297 1366 337 1389T437 1412Q488 1412 533 1398T621 1370T709 1355Q756 1355 791 1373T856
1414L889 1279Q862 1258 818 1238T709 1217Q655 1217 613 1230T532 1257T446 1270Q396 1270 365 1254T301 1212Z" />
<glyph unicode="&#xe4;" horiz-adv-x="1113" d="M440 -20Q340 -20 263 16T141 120T97 284Q97 456 218 541T608 631L778 636V711Q778 800 725 851T561 901Q479 901 414 863T329 738H144Q150 841 203 911T351 1018T571 1054Q713 1054 804 1016T939 903T984 723V0H802L786
190Q728 71 639 26T440 -20ZM507 129Q556 129 604 146T691 194T753 263T778 341V512L638 509Q531 508 457 487T343 422T303 305Q303 222 360 176T507 129ZM674 1251L676 1446H882L880 1251H674ZM264 1251L266 1446H472L470 1251H264Z" />
<glyph unicode="&#xe5;" horiz-adv-x="1113" d="M440 -20Q340 -20 263 16T141 120T97 284Q97 456 218 541T608 631L778 636V711Q778 800 725 851T561 901Q479 901 414 863T329 738H144Q150 841 203 911T351 1018T571 1054Q713 1054 804 1016T939 903T984 723V0H802L786
190Q728 71 639 26T440 -20ZM507 129Q556 129 604 146T691 194T753 263T778 341V512L638 509Q531 508 457 487T343 422T303 305Q303 222 360 176T507 129ZM573 1149Q486 1149 426 1210T365 1362Q365 1446 426 1505T573 1564Q632 1564 679 1537T755 1462T783 1358Q783
1270 723 1210T573 1149ZM571 1250Q615 1250 645 1282T676 1357Q676 1403 646 1432T571 1461Q529 1461 497 1432T465 1357Q465 1315 497 1283T571 1250Z" />
<glyph unicode="&#xe6;" horiz-adv-x="1828" d="M440 -20Q340 -20 263 16T141 120T97 284Q97 456 219 541T609 631L778 636V711Q778 804 720 853T561 901Q480 901 415 861T329 738H144Q150 832 203 903T351 1014T571 1054Q702 1054 792 1012T926 893Q983 970 1069
1012T1268 1054Q1418 1054 1520 990T1676 811T1729 538V467H1001Q1001 374 1031 301T1124 185T1278 142Q1370 142 1437 184T1526 309H1724Q1706 203 1640 129T1479 18T1282 -20Q1139 -20 1029 41T858 217Q834 144 775 91T630 9T440 -20ZM507 129Q588 129 648 166T741
259T775 369V512L638 509Q532 508 457 487T343 422T303 305Q303 222 360 176T507 129ZM1001 606H1525Q1525 687 1497 753T1412 858T1267 897Q1178 897 1119 854T1031 744T1001 606Z" />
<glyph unicode="&#xe7;" d="M546 -415Q490 -415 440 -403T345 -364L378 -281Q406 -300 441 -314T520 -329Q573 -329 599 -311T626 -259Q626 -216 589 -195T463 -172Q453 -172 450 -169T450 -157L523 10H629L583 -110Q653 -112 693 -135T751 -191T769 -259Q769
-309 738 -344T657 -397T546 -415ZM570 -20Q430 -20 321 41T150 222T88 513Q88 674 145 796T311 986T570 1054Q687 1054 777 1009T923 882T992 693H806Q798 744 768 788T689 858T572 885Q447 885 369 794T291 515Q291 343 364 241T575 139Q643 139 692 167T770
239T808 330H990Q978 226 922 147T775 24T570 -20Z" />
<glyph unicode="&#xe8;" horiz-adv-x="1139" d="M593 -20Q446 -20 334 43T160 225T97 506Q97 667 154 790T319 984T579 1054Q728 1054 831 990T987 811T1040 538V467H312Q311 374 342 301T434 185T588 142Q681 142 748 184T837 309H1035Q1017 203 950 129T789
18T593 -20ZM312 606H836Q836 687 808 753T723 858T578 897Q489 897 430 854T342 744T312 606ZM502 1155L222 1446H458L664 1155H502Z" />
<glyph unicode="&#xe9;" horiz-adv-x="1139" d="M593 -20Q446 -20 334 43T160 225T97 506Q97 667 154 790T319 984T579 1054Q728 1054 831 990T987 811T1040 538V467H312Q311 374 342 301T434 185T588 142Q681 142 748 184T837 309H1035Q1017 203 950 129T789
18T593 -20ZM312 606H836Q836 687 808 753T723 858T578 897Q489 897 430 854T342 744T312 606ZM491 1155L697 1446H932L652 1155H491Z" />
<glyph unicode="&#xea;" horiz-adv-x="1139" d="M593 -20Q446 -20 334 43T160 225T97 506Q97 667 154 790T319 984T579 1054Q728 1054 831 990T987 811T1040 538V467H312Q311 374 342 301T434 185T588 142Q681 142 748 184T837 309H1035Q1017 203 950 129T789
18T593 -20ZM312 606H836Q836 687 808 753T723 858T578 897Q489 897 430 854T342 744T312 606ZM251 1155L505 1389H657L906 1155H717L579 1288L429 1155H251Z" />
<glyph unicode="&#xeb;" horiz-adv-x="1139" d="M593 -20Q446 -20 334 43T160 225T97 506Q97 667 154 790T319 984T579 1054Q728 1054 831 990T987 811T1040 538V467H312Q311 374 342 301T434 185T588 142Q681 142 748 184T837 309H1035Q1017 203 950 129T789
18T593 -20ZM312 606H836Q836 687 808 753T723 858T578 897Q489 897 430 854T342 744T312 606ZM681 1251L683 1446H889L887 1251H681ZM271 1251L273 1446H479L477 1251H271Z" />
<glyph unicode="&#xec;" horiz-adv-x="496" d="M145 0V1034H351V0H145ZM433 1155L225 1446H451L584 1156L433 1155Z" />
<glyph unicode="&#xed;" horiz-adv-x="496" d="M145 0V1034H351V0H145ZM320 1155L170 1156L303 1446H529L320 1155Z" />
<glyph unicode="&#xee;" horiz-adv-x="496" d="M145 0V1034H351V0H145ZM178 1155L432 1389H584L833 1155H644L506 1288L356 1155H178Z" />
<glyph unicode="&#xef;" horiz-adv-x="648" d="M216 0V1034H422V0H216ZM425 1504L427 1699H633L631 1504H425ZM15 1504L17 1699H223L221 1504H15Z" />
<glyph unicode="&#xf0;" horiz-adv-x="1137" d="M566 -20Q412 -20 306 49T144 237T88 504Q88 630 122 728T219 896T367 1001T556 1037Q715 1037 811 954T932 727L778 864Q761 968 715 1060T607 1232T483 1373T366 1480H555Q641 1418 728 1327T888 1118T1004 854T1048
535Q1048 370 995 245T834 50T566 -20ZM571 145Q665 145 723 193T810 325T838 512Q838 685 771 781T573 877Q434 877 367 776T300 512Q300 413 326 329T412 195T571 145ZM348 1130L316 1234L959 1428L990 1323L348 1130Z" />
<glyph unicode="&#xf1;" horiz-adv-x="1163" d="M145 0V1034H354V885Q379 927 421 964T526 1024T671 1047Q768 1047 850 1009T983 889T1033 678V0H819V655Q819 766 760 820T606 874Q543 874 486 853T394 790T359 683V0H145ZM329 1212L291 1333Q325 1366 365 1389T465
1412Q516 1412 561 1398T649 1370T737 1355Q784 1355 819 1373T884 1414L917 1279Q890 1258 846 1238T737 1217Q683 1217 641 1230T560 1257T474 1270Q424 1270 393 1254T329 1212Z" />
<glyph unicode="&#xf2;" horiz-adv-x="1136" d="M569 -20Q424 -20 316 42T148 224T88 512Q88 675 145 797T309 986T570 1054Q716 1054 823 991T989 806T1048 512Q1048 355 993 235T832 48T569 -20ZM570 145Q659 145 718 191T807 322T837 518Q837 621 811 705T726
840T570 890Q481 890 421 845T330 716T300 518Q300 417 327 332T413 196T570 145ZM491 1155L211 1446H447L653 1155H491Z" />
<glyph unicode="&#xf3;" horiz-adv-x="1136" d="M569 -20Q424 -20 316 42T148 224T88 512Q88 675 145 797T309 986T570 1054Q716 1054 823 991T989 806T1048 512Q1048 355 993 235T832 48T569 -20ZM570 145Q659 145 718 191T807 322T837 518Q837 621 811 705T726
840T570 890Q481 890 421 845T330 716T300 518Q300 417 327 332T413 196T570 145ZM480 1155L686 1446H921L641 1155H480Z" />
<glyph unicode="&#xf4;" horiz-adv-x="1136" d="M569 -20Q424 -20 316 42T148 224T88 512Q88 675 145 797T309 986T570 1054Q716 1054 823 991T989 806T1048 512Q1048 355 993 235T832 48T569 -20ZM570 145Q659 145 718 191T807 322T837 518Q837 621 811 705T726
840T570 890Q481 890 421 845T330 716T300 518Q300 417 327 332T413 196T570 145ZM240 1155L494 1389H646L895 1155H706L568 1288L418 1155H240Z" />
<glyph unicode="&#xf5;" horiz-adv-x="1136" d="M569 -20Q424 -20 316 42T148 224T88 512Q88 675 145 797T309 986T570 1054Q716 1054 823 991T989 806T1048 512Q1048 355 993 235T832 48T569 -20ZM570 145Q659 145 718 191T807 322T837 518Q837 621 811 705T726
840T570 890Q481 890 421 845T330 716T300 518Q300 417 327 332T413 196T570 145ZM297 1212L259 1333Q293 1366 333 1389T433 1412Q484 1412 529 1398T617 1370T705 1355Q752 1355 787 1373T852 1414L885 1279Q858 1258 814 1238T705 1217Q651 1217 609 1230T528
1257T442 1270Q392 1270 361 1254T297 1212Z" />
<glyph unicode="&#xf6;" horiz-adv-x="1136" d="M569 -20Q424 -20 316 42T148 224T88 512Q88 675 145 797T309 986T570 1054Q716 1054 823 991T989 806T1048 512Q1048 355 993 235T832 48T569 -20ZM570 145Q659 145 718 191T807 322T837 518Q837 621 811 705T726
840T570 890Q481 890 421 845T330 716T300 518Q300 417 327 332T413 196T570 145ZM670 1251L672 1446H878L876 1251H670ZM260 1251L262 1446H468L466 1251H260Z" />
<glyph unicode="&#xf7;" horiz-adv-x="1128" d="M121 645V808L1007 809V646L121 645ZM439 243V485H691V243H439ZM439 970V1212H691V970H439Z" />
<glyph unicode="&#xf8;" horiz-adv-x="1186" d="M124 -12L43 73L1054 1043L1134 958L124 -12ZM597 -20Q452 -20 344 42T176 224T116 512Q116 675 172 797T337 986T598 1054Q744 1054 851 991T1017 806T1076 512Q1076 355 1021 235T859 48T597 -20ZM598 145Q686
145 745 191T835 322T865 518Q865 621 839 705T753 840T598 890Q508 890 448 845T358 716T327 518Q327 417 354 332T441 196T598 145Z" />
<glyph unicode="&#xf9;" horiz-adv-x="1169" d="M525 -20Q447 -19 376 3T250 69T162 178T129 329V1034H344V352Q344 259 402 201T577 143Q683 143 747 198T811 361V1034H1024V0H858L834 200Q816 119 770 71T660 1T525 -20ZM502 1155L222 1446H458L664 1155H502Z" />
<glyph unicode="&#xfa;" horiz-adv-x="1169" d="M525 -20Q447 -19 376 3T250 69T162 178T129 329V1034H344V352Q344 259 402 201T577 143Q683 143 747 198T811 361V1034H1024V0H858L834 200Q816 119 770 71T660 1T525 -20ZM491 1155L697 1446H932L652 1155H491Z" />
<glyph unicode="&#xfb;" horiz-adv-x="1169" d="M525 -20Q447 -19 376 3T250 69T162 178T129 329V1034H344V352Q344 259 402 201T577 143Q683 143 747 198T811 361V1034H1024V0H858L834 200Q816 119 770 71T660 1T525 -20ZM251 1155L505 1389H657L906 1155H717L579
1288L429 1155H251Z" />
<glyph unicode="&#xfc;" horiz-adv-x="1169" d="M525 -20Q447 -19 376 3T250 69T162 178T129 329V1034H344V352Q344 259 402 201T577 143Q683 143 747 198T811 361V1034H1024V0H858L834 200Q816 119 770 71T660 1T525 -20ZM681 1251L683 1446H889L887 1251H681ZM271
1251L273 1446H479L477 1251H271Z" />
<glyph unicode="&#xfd;" horiz-adv-x="1085" d="M264 -330Q169 -330 133 -316T96 -302V-164L201 -166Q261 -169 300 -159T361 -132T395 -94T413 -57L445 30L42 1034H256L546 270L835 1034H1044L613 -58Q569 -166 517 -225T401 -307T264 -330ZM457 1155L663 1446H898L618
1155H457Z" />
<glyph unicode="&#xfe;" horiz-adv-x="1187" d="M145 -322V1446H358V895Q385 925 425 962T528 1027T681 1054Q799 1054 893 997T1043 823T1099 529Q1099 349 1044 227T889 43T662 -20Q577 -20 510 7T391 79Q372 96 366 94T359 67V-322H145ZM594 125Q679 125 743
169T844 302T881 530Q881 666 844 749T743 870T602 908Q531 908 476 878T390 801T359 709V242Q409 190 466 158T594 125Z" />
<glyph unicode="&#xff;" horiz-adv-x="1085" d="M264 -330Q169 -330 133 -316T96 -302V-164L201 -166Q261 -169 300 -159T361 -132T395 -94T413 -57L445 30L42 1034H256L546 270L835 1034H1044L613 -58Q569 -166 517 -225T401 -307T264 -330ZM647 1251L649 1446H855L853
1251H647ZM237 1251L239 1446H445L443 1251H237Z" />
<glyph unicode="&#x2013;" horiz-adv-x="1131" d="M123 418V582L1008 583V419L123 418Z" />
<glyph unicode="&#x2014;" horiz-adv-x="2251" d="M368 418V582L1883 583V419L368 418Z" />
<glyph unicode="&#x2018;" horiz-adv-x="492" d="M98 1012V1219L276 1509H368L256 1254L346 1248V1012H98Z" />
<glyph unicode="&#x2019;" horiz-adv-x="479" d="M100 949L212 1204L122 1210V1446H370V1239L192 949H100Z" />
<glyph unicode="&#x201a;" horiz-adv-x="502" d="M89 -257L201 -3L111 3V241H359V33L181 -257H89Z" />
<glyph unicode="&#x201c;" horiz-adv-x="871" d="M98 949V1157L277 1446H369L256 1193L346 1186V949H98ZM477 949V1157L656 1446H748L634 1193L726 1186V949H477Z" />
<glyph unicode="&#x201d;" horiz-adv-x="858" d="M478 949L592 1204L501 1210V1446H749V1239L571 949H478ZM100 949L212 1204L122 1210V1446H370V1239L192 949H100Z" />
<glyph unicode="&#x201e;" horiz-adv-x="890" d="M477 -257L589 -3L499 3V241H747V33L569 -257H477ZM89 -257L201 -3L111 3V241H359V33L181 -257H89Z" />
<glyph unicode="&#x2022;" horiz-adv-x="653" d="M319 524Q261 524 214 552T138 629T109 736Q109 794 137 841T213 917T319 946Q378 946 426 918T502 842T530 736Q530 678 502 630T426 553T319 524Z" />
<glyph unicode="&#x2039;" horiz-adv-x="573" d="M341 137L86 502L341 883H461L270 502L459 137H341Z" />
<glyph unicode="&#x203a;" horiz-adv-x="572" d="M114 137L303 502L112 883H231L485 502L231 137H114Z" />
</font>
</defs>
</svg>
